<svg xmlns="http://www.w3.org/2000/svg" version="1.1" xmlns:xlink="http://www.w3.org/1999/xlink" width="48" height="48"><svg id="SvgjsSvg1001" xmlns="http://www.w3.org/2000/svg" version="1.1" viewBox="0 0 48 48">
  <!-- Generator: Adobe Illustrator 29.0.1, SVG Export Plug-In . SVG Version: 2.1.0 Build 192)  -->
  <defs>
    <style>
      .st0 {
        fill: blue;
      }

      .st1 {
        fill: #ff7200;
      }
    </style>
  </defs>
  <rect class="st0" x="0" width="24" height="48"></rect>
  <rect class="st1" x="24" width="24" height="48"></rect>
  <g>
    <path class="st0" d="M42.17,31.77c-3.74,8.73-13.6,12.87-22.06,9.25-7.81-3.34-11.42-12.39-8.07-20.22,1-2.35,2.31-3.91,4.2-4.67,3.04-1.26,6.53.18,7.79,3.23.64,1.55.5,3.12-.03,4.63-.52,1.48-.67,3.09-.03,4.63,1.26,3.04,4.75,4.49,7.79,3.23,1.89-.76,3.19-2.32,4.2-4.67,3.35-7.83-.26-16.87-8.07-20.22-8.46-3.62-18.32.52-22.06,9.25C-.36,30.69,22.12,44.76,22.12,44.76c0,0,.6,3.2,2.09,3.24-3.22.03-6.5-.59-9.65-1.94C2.38,40.85-3.27,26.74,1.94,14.56,5.8,5.53,14.55.09,23.78,0c0,0,0,0,0,0,14.41.4,25.28,15.64,18.38,31.78ZM18.16,22.96c.72.2,1.47-.23,1.66-.95.2-.72-.23-1.47-.95-1.66-.72-.2-1.47.23-1.66.95-.2.72.23,1.47.95,1.66Z"></path>
    <path class="st1" d="M33.44,1.94c12.18,5.21,17.83,19.32,12.62,31.5-3.86,9.03-12.61,14.47-21.85,14.56,0,0,0,0,0,0-14.42-.4-25.29-15.64-18.38-31.78C9.57,7.49,19.43,3.35,27.89,6.97c7.81,3.34,11.42,12.38,8.07,20.22-1,2.35-2.31,3.91-4.2,4.67-3.04,1.26-6.53-.18-7.79-3.23-.64-1.55-.49-3.15.03-4.63.53-1.52.67-3.09.03-4.63-1.26-3.04-4.75-4.49-7.79-3.23-1.89.76-3.19,2.32-4.2,4.67-3.35,7.83.26,16.87,8.07,20.22,8.46,3.62,18.32-.52,22.06-9.25C49.07,15.64,38.21.4,23.79,0c3.22-.03,6.5.59,9.65,1.94ZM29.13,27.66c.72.2,1.47-.23,1.66-.95s-.23-1.47-.95-1.66c-.72-.2-1.47.23-1.66.95s.23,1.47.95,1.66Z"></path>
    <path class="st0" d="M31.45,26.88c-.29,1.08-1.41,1.72-2.5,1.43-1.08-.29-1.72-1.41-1.43-2.5s1.41-1.73,2.49-1.43c1.08.29,1.73,1.41,1.43,2.5Z"></path>
    <path class="st1" d="M20.48,22.19c-.29,1.08-1.41,1.73-2.5,1.43-1.08-.29-1.72-1.41-1.43-2.5.29-1.08,1.41-1.72,2.5-1.43,1.08.29,1.73,1.41,1.43,2.49Z"></path>
  </g>
</svg><style>@media (prefers-color-scheme: light) { :root { filter: none; } }
@media (prefers-color-scheme: dark) { :root { filter: none; } }
</style></svg>